<?xml version="1.0" encoding="UTF-8"?>
<svg viewBox="0 0 680 800" width="100%" xmlns="http://www.w3.org/2000/svg" role="img">
  <title>Spider-Man illustration</title>
  <desc>A stylized illustration of Spider-Man in his iconic red and blue suit</desc>

  <!-- Web pattern background -->
  <g stroke="#ddd" stroke-width="0.5" fill="none">
    <line x1="100" y1="0" x2="100" y2="800"/>
    <line x1="140" y1="0" x2="140" y2="800"/>
    <line x1="180" y1="0" x2="180" y2="800"/>
    <line x1="220" y1="0" x2="220" y2="800"/>
    <line x1="260" y1="0" x2="260" y2="800"/>
    <line x1="300" y1="0" x2="300" y2="800"/>
    <line x1="340" y1="0" x2="340" y2="800"/>
    <line x1="380" y1="0" x2="380" y2="800"/>
    <line x1="420" y1="0" x2="420" y2="800"/>
    <line x1="460" y1="0" x2="460" y2="800"/>
    <line x1="500" y1="0" x2="500" y2="800"/>
    <line x1="540" y1="0" x2="540" y2="800"/>
    <line x1="580" y1="0" x2="580" y2="800"/>
    <line x1="620" y1="0" x2="620" y2="800"/>
    <line x1="0" y1="50" x2="680" y2="50"/>
    <line x1="0" y1="100" x2="680" y2="100"/>
    <line x1="0" y1="150" x2="680" y2="150"/>
    <line x1="0" y1="200" x2="680" y2="200"/>
    <line x1="0" y1="250" x2="680" y2="250"/>
    <line x1="0" y1="300" x2="680" y2="300"/>
    <line x1="0" y1="350" x2="680" y2="350"/>
    <line x1="0" y1="400" x2="680" y2="400"/>
    <line x1="0" y1="450" x2="680" y2="450"/>
    <line x1="0" y1="500" x2="680" y2="500"/>
    <line x1="0" y1="550" x2="680" y2="550"/>
    <line x1="0" y1="600" x2="680" y2="600"/>
    <line x1="0" y1="650" x2="680" y2="650"/>
    <line x1="0" y1="700" x2="680" y2="700"/>
    <line x1="0" y1="750" x2="680" y2="750"/>
  </g>

  <!-- Spider-Man figure -->
  <ellipse cx="340" cy="300" rx="80" ry="110" fill="#E63946"/>
  <rect x="240" y="250" width="40" height="150" fill="#1D3557"/>
  <rect x="400" y="250" width="40" height="150" fill="#1D3557"/>
  <g transform="translate(340, 280)">
    <circle cx="0" cy="0" r="12" fill="#1D3557"/>
    <line x1="-15" y1="-8" x2="-28" y2="-15" stroke="#1D3557" stroke-width="2" stroke-linecap="round"/>
    <line x1="-15" y1="8" x2="-28" y2="15" stroke="#1D3557" stroke-width="2" stroke-linecap="round"/>
    <line x1="15" y1="-8" x2="28" y2="-15" stroke="#1D3557" stroke-width="2" stroke-linecap="round"/>
    <line x1="15" y1="8" x2="28" y2="15" stroke="#1D3557" stroke-width="2" stroke-linecap="round"/>
  </g>

  <circle cx="340" cy="150" r="50" fill="#E63946"/>
  <ellipse cx="320" cy="140" rx="15" ry="20" fill="#1D3557"/>
  <ellipse cx="360" cy="140" rx="15" ry="20" fill="#1D3557"/>
  <ellipse cx="318" cy="138" rx="8" ry="12" fill="white"/>
  <ellipse cx="362" cy="138" rx="8" ry="12" fill="white"/>
  <circle cx="318" cy="140" r="5" fill="black"/>
  <circle cx="362" cy="140" r="5" fill="black"/>
  <path d="M 330 165 Q 340 172 350 165" stroke="#1D3557" stroke-width="2" fill="none" stroke-linecap="round"/>

  <g>
    <rect x="150" y="280" width="35" height="80" rx="17" fill="#E63946" transform="rotate(-35 170 280)"/>
    <rect x="115" y="340" width="30" height="100" rx="15" fill="#E63946" transform="rotate(-50 135 340)"/>
    <circle cx="80" cy="410" r="18" fill="#E8A76B"/>
  </g>
  <g>
    <rect x="495" y="280" width="35" height="80" rx="17" fill="#E63946" transform="rotate(35 515 280)"/>
    <rect x="535" y="340" width="30" height="100" rx="15" fill="#E63946" transform="rotate(50 545 340)"/>
    <circle cx="600" cy="410" r="18" fill="#E8A76B"/>
  </g>

  <g>
    <rect x="270" y="390" width="40" height="120" rx="20" fill="#1D3557"/>
    <rect x="275" y="500" width="30" height="100" rx="15" fill="#E63946"/>
    <ellipse cx="290" cy="620" rx="22" ry="18" fill="#1D3557"/>
  </g>
  <g>
    <rect x="370" y="390" width="40" height="120" rx="20" fill="#1D3557"/>
    <rect x="375" y="500" width="30" height="100" rx="15" fill="#E63946"/>
    <ellipse cx="390" cy="620" rx="22" ry="18" fill="#1D3557"/>
  </g>

  <g stroke="#4ECDC4" stroke-width="1.5" fill="none" opacity="0.8">
    <path d="M 80 410 L 60 350 L 40 360 L 20 340"/>
    <path d="M 80 410 L 70 480 L 50 500 L 30 480"/>
    <path d="M 600 410 L 620 350 L 640 360 L 660 340"/>
    <path d="M 600 410 L 610 480 L 630 500 L 650 480"/>
  </g>

  <text x="340" y="750" text-anchor="middle" font-size="28" font-weight="bold" fill="#E63946" font-family="Arial, sans-serif">
    SPIDER-MAN
  </text>
  <text x="340" y="785" text-anchor="middle" font-size="14" fill="#1D3557" font-family="Arial, sans-serif">
    Your Friendly Neighborhood Web-Slinger
  </text>
</svg>
